<svg xmlns="http://www.w3.org/2000/svg" viewBox="0 0 100 100">
  <path d="M50,10 C65,10 70,25 70,40 C70,55 60,60 50,70 C40,60 30,55 30,40 C30,25 35,10 50,10 Z" fill="#f78fb3"/>
  <path d="M90,50 C90,65 75,70 60,70 C45,70 40,60 30,50 C40,40 45,30 60,30 C75,30 90,35 90,50 Z" fill="#f78fb3"/>
  <path d="M50,90 C35,90 30,75 30,60 C30,45 40,40 50,30 C60,40 70,45 70,60 C70,75 65,90 50,90 Z" fill="#f78fb3"/>
  <path d="M10,50 C10,35 25,30 40,30 C55,30 60,40 70,50 C60,60 55,70 40,70 C25,70 10,65 10,50 Z" fill="#f78fb3"/>
  <circle cx="50" cy="50" r="15" fill="#fff0f5"/>
</svg>
